<mxfile host="app.diagrams.net" agent="Mozilla/5.0 (Windows NT 10.0; Win64; x64) AppleWebKit/537.36 (KHTML, like Gecko) Chrome/137.0.0.0 Safari/537.36" version="27.1.6">
  <diagram id="ABi7pcu78SNqBDGiMslg" name="Biblioteca">
    <mxGraphModel dx="1042" dy="1739" grid="1" gridSize="10" guides="1" tooltips="1" connect="1" arrows="1" fold="1" page="1" pageScale="1" pageWidth="827" pageHeight="1169" math="0" shadow="0">
      <root>
        <mxCell id="0" />
        <mxCell id="1" parent="0" />
        <mxCell id="7mictqGVA30ZmTcB6VZ4-40" style="edgeStyle=orthogonalEdgeStyle;rounded=0;orthogonalLoop=1;jettySize=auto;html=1;exitX=0;exitY=0.5;exitDx=0;exitDy=0;entryX=1;entryY=1;entryDx=0;entryDy=0;endArrow=none;startFill=0;" edge="1" parent="1" source="7mictqGVA30ZmTcB6VZ4-1" target="7mictqGVA30ZmTcB6VZ4-6">
          <mxGeometry relative="1" as="geometry" />
        </mxCell>
        <mxCell id="7mictqGVA30ZmTcB6VZ4-43" style="edgeStyle=orthogonalEdgeStyle;rounded=0;orthogonalLoop=1;jettySize=auto;html=1;exitX=1;exitY=0;exitDx=0;exitDy=0;entryX=0;entryY=0.5;entryDx=0;entryDy=0;endArrow=none;startFill=0;" edge="1" parent="1" source="7mictqGVA30ZmTcB6VZ4-1" target="7mictqGVA30ZmTcB6VZ4-13">
          <mxGeometry relative="1" as="geometry" />
        </mxCell>
        <mxCell id="7mictqGVA30ZmTcB6VZ4-44" style="edgeStyle=orthogonalEdgeStyle;rounded=0;orthogonalLoop=1;jettySize=auto;html=1;exitX=1;exitY=0.5;exitDx=0;exitDy=0;entryX=0;entryY=0;entryDx=0;entryDy=0;endArrow=none;startFill=0;" edge="1" parent="1" source="7mictqGVA30ZmTcB6VZ4-1" target="7mictqGVA30ZmTcB6VZ4-14">
          <mxGeometry relative="1" as="geometry" />
        </mxCell>
        <mxCell id="7mictqGVA30ZmTcB6VZ4-1" value="Libro" style="whiteSpace=wrap;html=1;align=center;" vertex="1" parent="1">
          <mxGeometry x="710" y="-400" width="100" height="40" as="geometry" />
        </mxCell>
        <mxCell id="7mictqGVA30ZmTcB6VZ4-28" style="edgeStyle=orthogonalEdgeStyle;rounded=0;orthogonalLoop=1;jettySize=auto;html=1;exitX=1;exitY=0.25;exitDx=0;exitDy=0;entryX=0;entryY=1;entryDx=0;entryDy=0;endArrow=none;startFill=0;" edge="1" parent="1" source="7mictqGVA30ZmTcB6VZ4-2" target="7mictqGVA30ZmTcB6VZ4-10">
          <mxGeometry relative="1" as="geometry" />
        </mxCell>
        <mxCell id="7mictqGVA30ZmTcB6VZ4-2" value="Autor" style="whiteSpace=wrap;html=1;align=center;" vertex="1" parent="1">
          <mxGeometry x="190" y="-380" width="100" height="40" as="geometry" />
        </mxCell>
        <mxCell id="7mictqGVA30ZmTcB6VZ4-29" style="edgeStyle=orthogonalEdgeStyle;rounded=0;orthogonalLoop=1;jettySize=auto;html=1;exitX=0;exitY=0.25;exitDx=0;exitDy=0;endArrow=none;startFill=0;" edge="1" parent="1" source="7mictqGVA30ZmTcB6VZ4-3" target="7mictqGVA30ZmTcB6VZ4-7">
          <mxGeometry relative="1" as="geometry" />
        </mxCell>
        <mxCell id="7mictqGVA30ZmTcB6VZ4-32" style="edgeStyle=orthogonalEdgeStyle;rounded=0;orthogonalLoop=1;jettySize=auto;html=1;exitX=1;exitY=0;exitDx=0;exitDy=0;entryX=0;entryY=0.5;entryDx=0;entryDy=0;endArrow=none;startFill=0;" edge="1" parent="1" source="7mictqGVA30ZmTcB6VZ4-3" target="7mictqGVA30ZmTcB6VZ4-17">
          <mxGeometry relative="1" as="geometry" />
        </mxCell>
        <mxCell id="7mictqGVA30ZmTcB6VZ4-33" style="edgeStyle=orthogonalEdgeStyle;rounded=0;orthogonalLoop=1;jettySize=auto;html=1;exitX=1;exitY=0.5;exitDx=0;exitDy=0;entryX=0;entryY=0.5;entryDx=0;entryDy=0;endArrow=none;startFill=0;" edge="1" parent="1" source="7mictqGVA30ZmTcB6VZ4-3" target="7mictqGVA30ZmTcB6VZ4-18">
          <mxGeometry relative="1" as="geometry" />
        </mxCell>
        <mxCell id="7mictqGVA30ZmTcB6VZ4-3" value="Miembro" style="whiteSpace=wrap;html=1;align=center;" vertex="1" parent="1">
          <mxGeometry x="200" y="-100" width="100" height="40" as="geometry" />
        </mxCell>
        <mxCell id="7mictqGVA30ZmTcB6VZ4-36" style="edgeStyle=orthogonalEdgeStyle;rounded=0;orthogonalLoop=1;jettySize=auto;html=1;exitX=0.75;exitY=0;exitDx=0;exitDy=0;entryX=0;entryY=0.5;entryDx=0;entryDy=0;endArrow=none;startFill=0;" edge="1" parent="1" source="7mictqGVA30ZmTcB6VZ4-4" target="7mictqGVA30ZmTcB6VZ4-20">
          <mxGeometry relative="1" as="geometry" />
        </mxCell>
        <mxCell id="7mictqGVA30ZmTcB6VZ4-37" style="edgeStyle=orthogonalEdgeStyle;rounded=0;orthogonalLoop=1;jettySize=auto;html=1;exitX=1;exitY=0.25;exitDx=0;exitDy=0;entryX=0;entryY=0.5;entryDx=0;entryDy=0;endArrow=none;startFill=0;" edge="1" parent="1" source="7mictqGVA30ZmTcB6VZ4-4" target="7mictqGVA30ZmTcB6VZ4-21">
          <mxGeometry relative="1" as="geometry" />
        </mxCell>
        <mxCell id="7mictqGVA30ZmTcB6VZ4-39" style="edgeStyle=orthogonalEdgeStyle;rounded=0;orthogonalLoop=1;jettySize=auto;html=1;exitX=0.75;exitY=1;exitDx=0;exitDy=0;entryX=0;entryY=0.5;entryDx=0;entryDy=0;endArrow=none;startFill=0;" edge="1" parent="1" source="7mictqGVA30ZmTcB6VZ4-4" target="7mictqGVA30ZmTcB6VZ4-22">
          <mxGeometry relative="1" as="geometry" />
        </mxCell>
        <mxCell id="7mictqGVA30ZmTcB6VZ4-4" value="Prestamo" style="whiteSpace=wrap;html=1;align=center;" vertex="1" parent="1">
          <mxGeometry x="750" y="-100" width="100" height="40" as="geometry" />
        </mxCell>
        <mxCell id="7mictqGVA30ZmTcB6VZ4-5" value="unique_id" style="ellipse;whiteSpace=wrap;html=1;align=center;fontStyle=4;" vertex="1" parent="1">
          <mxGeometry x="60" y="-440" width="100" height="40" as="geometry" />
        </mxCell>
        <mxCell id="7mictqGVA30ZmTcB6VZ4-6" value="unique_id" style="ellipse;whiteSpace=wrap;html=1;align=center;fontStyle=4;" vertex="1" parent="1">
          <mxGeometry x="570" y="-430" width="100" height="40" as="geometry" />
        </mxCell>
        <mxCell id="7mictqGVA30ZmTcB6VZ4-7" value="unique_id" style="ellipse;whiteSpace=wrap;html=1;align=center;fontStyle=4;" vertex="1" parent="1">
          <mxGeometry x="100" y="-160" width="100" height="40" as="geometry" />
        </mxCell>
        <mxCell id="7mictqGVA30ZmTcB6VZ4-8" value="unique_id" style="ellipse;whiteSpace=wrap;html=1;align=center;fontStyle=4;" vertex="1" parent="1">
          <mxGeometry x="570" y="-160" width="100" height="40" as="geometry" />
        </mxCell>
        <mxCell id="7mictqGVA30ZmTcB6VZ4-9" value="Nombre" style="ellipse;whiteSpace=wrap;html=1;align=center;" vertex="1" parent="1">
          <mxGeometry x="210" y="-470" width="100" height="40" as="geometry" />
        </mxCell>
        <mxCell id="7mictqGVA30ZmTcB6VZ4-10" value="Nacionalidad" style="ellipse;whiteSpace=wrap;html=1;align=center;" vertex="1" parent="1">
          <mxGeometry x="350" y="-420" width="100" height="40" as="geometry" />
        </mxCell>
        <mxCell id="7mictqGVA30ZmTcB6VZ4-11" value="Titulo" style="ellipse;whiteSpace=wrap;html=1;align=center;" vertex="1" parent="1">
          <mxGeometry x="640" y="-490" width="100" height="40" as="geometry" />
        </mxCell>
        <mxCell id="7mictqGVA30ZmTcB6VZ4-12" value="Anio Publicacion" style="ellipse;whiteSpace=wrap;html=1;align=center;" vertex="1" parent="1">
          <mxGeometry x="750" y="-510" width="100" height="40" as="geometry" />
        </mxCell>
        <mxCell id="7mictqGVA30ZmTcB6VZ4-13" value="Disponible" style="ellipse;whiteSpace=wrap;html=1;align=center;" vertex="1" parent="1">
          <mxGeometry x="880" y="-450" width="100" height="40" as="geometry" />
        </mxCell>
        <mxCell id="7mictqGVA30ZmTcB6VZ4-14" value="Genero" style="ellipse;whiteSpace=wrap;html=1;align=center;" vertex="1" parent="1">
          <mxGeometry x="890" y="-390" width="100" height="40" as="geometry" />
        </mxCell>
        <mxCell id="7mictqGVA30ZmTcB6VZ4-15" value="Autor_id" style="ellipse;whiteSpace=wrap;html=1;align=center;" vertex="1" parent="1">
          <mxGeometry x="827" y="-340" width="100" height="40" as="geometry" />
        </mxCell>
        <mxCell id="7mictqGVA30ZmTcB6VZ4-16" value="Nombre" style="ellipse;whiteSpace=wrap;html=1;align=center;" vertex="1" parent="1">
          <mxGeometry x="220" y="-190" width="100" height="40" as="geometry" />
        </mxCell>
        <mxCell id="7mictqGVA30ZmTcB6VZ4-17" value="Email" style="ellipse;whiteSpace=wrap;html=1;align=center;" vertex="1" parent="1">
          <mxGeometry x="320" y="-160" width="100" height="40" as="geometry" />
        </mxCell>
        <mxCell id="7mictqGVA30ZmTcB6VZ4-18" value="Telefono" style="ellipse;whiteSpace=wrap;html=1;align=center;" vertex="1" parent="1">
          <mxGeometry x="364" y="-110" width="100" height="40" as="geometry" />
        </mxCell>
        <mxCell id="7mictqGVA30ZmTcB6VZ4-19" value="libro_id" style="ellipse;whiteSpace=wrap;html=1;align=center;" vertex="1" parent="1">
          <mxGeometry x="710" y="-180" width="100" height="40" as="geometry" />
        </mxCell>
        <mxCell id="7mictqGVA30ZmTcB6VZ4-20" value="miembro_id" style="ellipse;whiteSpace=wrap;html=1;align=center;" vertex="1" parent="1">
          <mxGeometry x="860" y="-170" width="100" height="40" as="geometry" />
        </mxCell>
        <mxCell id="7mictqGVA30ZmTcB6VZ4-21" value="Fecha_Prestamo" style="ellipse;whiteSpace=wrap;html=1;align=center;" vertex="1" parent="1">
          <mxGeometry x="900" y="-110" width="100" height="40" as="geometry" />
        </mxCell>
        <mxCell id="7mictqGVA30ZmTcB6VZ4-22" value="Fecha_Devolucion" style="ellipse;whiteSpace=wrap;html=1;align=center;" vertex="1" parent="1">
          <mxGeometry x="900" y="-50" width="100" height="40" as="geometry" />
        </mxCell>
        <mxCell id="7mictqGVA30ZmTcB6VZ4-48" style="edgeStyle=orthogonalEdgeStyle;rounded=0;orthogonalLoop=1;jettySize=auto;html=1;exitX=1;exitY=0.5;exitDx=0;exitDy=0;entryX=0.25;entryY=1;entryDx=0;entryDy=0;endArrow=oval;endFill=1;" edge="1" parent="1" source="7mictqGVA30ZmTcB6VZ4-23" target="7mictqGVA30ZmTcB6VZ4-1">
          <mxGeometry relative="1" as="geometry" />
        </mxCell>
        <mxCell id="7mictqGVA30ZmTcB6VZ4-23" value="Relationship" style="shape=rhombus;perimeter=rhombusPerimeter;whiteSpace=wrap;html=1;align=center;" vertex="1" parent="1">
          <mxGeometry x="440" y="-320" width="120" height="60" as="geometry" />
        </mxCell>
        <mxCell id="7mictqGVA30ZmTcB6VZ4-24" value="Relationship" style="shape=rhombus;perimeter=rhombusPerimeter;whiteSpace=wrap;html=1;align=center;" vertex="1" parent="1">
          <mxGeometry x="440" y="60" width="120" height="60" as="geometry" />
        </mxCell>
        <mxCell id="7mictqGVA30ZmTcB6VZ4-49" style="edgeStyle=orthogonalEdgeStyle;rounded=0;orthogonalLoop=1;jettySize=auto;html=1;exitX=0;exitY=0.5;exitDx=0;exitDy=0;entryX=0.5;entryY=1;entryDx=0;entryDy=0;endArrow=oval;endFill=1;" edge="1" parent="1" source="7mictqGVA30ZmTcB6VZ4-25" target="7mictqGVA30ZmTcB6VZ4-1">
          <mxGeometry relative="1" as="geometry" />
        </mxCell>
        <mxCell id="7mictqGVA30ZmTcB6VZ4-25" value="Relationship" style="shape=rhombus;perimeter=rhombusPerimeter;whiteSpace=wrap;html=1;align=center;" vertex="1" parent="1">
          <mxGeometry x="970" y="-250" width="120" height="60" as="geometry" />
        </mxCell>
        <mxCell id="7mictqGVA30ZmTcB6VZ4-26" style="edgeStyle=orthogonalEdgeStyle;rounded=0;orthogonalLoop=1;jettySize=auto;html=1;exitX=0;exitY=0.25;exitDx=0;exitDy=0;entryX=0.788;entryY=1;entryDx=0;entryDy=0;entryPerimeter=0;endArrow=none;startFill=0;" edge="1" parent="1" source="7mictqGVA30ZmTcB6VZ4-2" target="7mictqGVA30ZmTcB6VZ4-5">
          <mxGeometry relative="1" as="geometry" />
        </mxCell>
        <mxCell id="7mictqGVA30ZmTcB6VZ4-27" style="edgeStyle=orthogonalEdgeStyle;rounded=0;orthogonalLoop=1;jettySize=auto;html=1;exitX=0.5;exitY=0;exitDx=0;exitDy=0;entryX=0.36;entryY=0.97;entryDx=0;entryDy=0;entryPerimeter=0;endArrow=none;startFill=0;" edge="1" parent="1" source="7mictqGVA30ZmTcB6VZ4-2" target="7mictqGVA30ZmTcB6VZ4-9">
          <mxGeometry relative="1" as="geometry" />
        </mxCell>
        <mxCell id="7mictqGVA30ZmTcB6VZ4-30" style="edgeStyle=orthogonalEdgeStyle;rounded=0;orthogonalLoop=1;jettySize=auto;html=1;exitX=0.5;exitY=0;exitDx=0;exitDy=0;entryX=0.276;entryY=0.85;entryDx=0;entryDy=0;entryPerimeter=0;endArrow=none;startFill=0;" edge="1" parent="1" source="7mictqGVA30ZmTcB6VZ4-3" target="7mictqGVA30ZmTcB6VZ4-16">
          <mxGeometry relative="1" as="geometry" />
        </mxCell>
        <mxCell id="7mictqGVA30ZmTcB6VZ4-34" style="edgeStyle=orthogonalEdgeStyle;rounded=0;orthogonalLoop=1;jettySize=auto;html=1;exitX=0;exitY=0.25;exitDx=0;exitDy=0;entryX=0.768;entryY=0.9;entryDx=0;entryDy=0;entryPerimeter=0;endArrow=none;startFill=0;" edge="1" parent="1" source="7mictqGVA30ZmTcB6VZ4-4" target="7mictqGVA30ZmTcB6VZ4-8">
          <mxGeometry relative="1" as="geometry" />
        </mxCell>
        <mxCell id="7mictqGVA30ZmTcB6VZ4-35" style="edgeStyle=orthogonalEdgeStyle;rounded=0;orthogonalLoop=1;jettySize=auto;html=1;exitX=0.25;exitY=0;exitDx=0;exitDy=0;entryX=0.584;entryY=1.04;entryDx=0;entryDy=0;entryPerimeter=0;endArrow=none;startFill=0;" edge="1" parent="1" source="7mictqGVA30ZmTcB6VZ4-4" target="7mictqGVA30ZmTcB6VZ4-19">
          <mxGeometry relative="1" as="geometry" />
        </mxCell>
        <mxCell id="7mictqGVA30ZmTcB6VZ4-41" style="edgeStyle=orthogonalEdgeStyle;rounded=0;orthogonalLoop=1;jettySize=auto;html=1;exitX=0.25;exitY=0;exitDx=0;exitDy=0;entryX=0.684;entryY=1.09;entryDx=0;entryDy=0;entryPerimeter=0;endArrow=none;startFill=0;" edge="1" parent="1" source="7mictqGVA30ZmTcB6VZ4-1" target="7mictqGVA30ZmTcB6VZ4-11">
          <mxGeometry relative="1" as="geometry" />
        </mxCell>
        <mxCell id="7mictqGVA30ZmTcB6VZ4-42" style="edgeStyle=orthogonalEdgeStyle;rounded=0;orthogonalLoop=1;jettySize=auto;html=1;exitX=0.75;exitY=0;exitDx=0;exitDy=0;entryX=0.328;entryY=1.02;entryDx=0;entryDy=0;entryPerimeter=0;endArrow=none;startFill=0;" edge="1" parent="1" source="7mictqGVA30ZmTcB6VZ4-1" target="7mictqGVA30ZmTcB6VZ4-12">
          <mxGeometry relative="1" as="geometry" />
        </mxCell>
        <mxCell id="7mictqGVA30ZmTcB6VZ4-45" style="edgeStyle=orthogonalEdgeStyle;rounded=0;orthogonalLoop=1;jettySize=auto;html=1;exitX=0.75;exitY=1;exitDx=0;exitDy=0;entryX=0.03;entryY=0.25;entryDx=0;entryDy=0;entryPerimeter=0;endArrow=none;startFill=0;" edge="1" parent="1" source="7mictqGVA30ZmTcB6VZ4-1" target="7mictqGVA30ZmTcB6VZ4-15">
          <mxGeometry relative="1" as="geometry" />
        </mxCell>
        <mxCell id="7mictqGVA30ZmTcB6VZ4-46" style="edgeStyle=orthogonalEdgeStyle;rounded=0;orthogonalLoop=1;jettySize=auto;html=1;entryX=0.632;entryY=0.96;entryDx=0;entryDy=0;entryPerimeter=0;endArrow=oval;endFill=1;" edge="1" parent="1" source="7mictqGVA30ZmTcB6VZ4-23" target="7mictqGVA30ZmTcB6VZ4-2">
          <mxGeometry relative="1" as="geometry" />
        </mxCell>
        <mxCell id="7mictqGVA30ZmTcB6VZ4-51" style="edgeStyle=orthogonalEdgeStyle;rounded=0;orthogonalLoop=1;jettySize=auto;html=1;entryX=0.376;entryY=0.98;entryDx=0;entryDy=0;entryPerimeter=0;endArrow=oval;endFill=1;" edge="1" parent="1" source="7mictqGVA30ZmTcB6VZ4-25" target="7mictqGVA30ZmTcB6VZ4-4">
          <mxGeometry relative="1" as="geometry">
            <Array as="points">
              <mxPoint x="1040" y="40" />
              <mxPoint x="788" y="40" />
            </Array>
          </mxGeometry>
        </mxCell>
        <mxCell id="7mictqGVA30ZmTcB6VZ4-52" style="edgeStyle=orthogonalEdgeStyle;rounded=0;orthogonalLoop=1;jettySize=auto;html=1;entryX=0.604;entryY=1.06;entryDx=0;entryDy=0;entryPerimeter=0;endArrow=oval;endFill=1;" edge="1" parent="1" source="7mictqGVA30ZmTcB6VZ4-24" target="7mictqGVA30ZmTcB6VZ4-3">
          <mxGeometry relative="1" as="geometry" />
        </mxCell>
        <mxCell id="7mictqGVA30ZmTcB6VZ4-53" style="edgeStyle=orthogonalEdgeStyle;rounded=0;orthogonalLoop=1;jettySize=auto;html=1;entryX=0.112;entryY=0.94;entryDx=0;entryDy=0;entryPerimeter=0;endArrow=oval;endFill=1;" edge="1" parent="1" source="7mictqGVA30ZmTcB6VZ4-24" target="7mictqGVA30ZmTcB6VZ4-4">
          <mxGeometry relative="1" as="geometry" />
        </mxCell>
        <mxCell id="7mictqGVA30ZmTcB6VZ4-54" value="(1:M)" style="text;html=1;align=center;verticalAlign=middle;resizable=0;points=[];autosize=1;strokeColor=none;fillColor=none;" vertex="1" parent="1">
          <mxGeometry x="195" y="-342" width="50" height="30" as="geometry" />
        </mxCell>
        <mxCell id="7mictqGVA30ZmTcB6VZ4-55" value="(N:1)" style="text;html=1;align=center;verticalAlign=middle;resizable=0;points=[];autosize=1;strokeColor=none;fillColor=none;" vertex="1" parent="1">
          <mxGeometry x="695" y="-362" width="50" height="30" as="geometry" />
        </mxCell>
        <mxCell id="7mictqGVA30ZmTcB6VZ4-56" value="(1:M)" style="text;html=1;align=center;verticalAlign=middle;resizable=0;points=[];autosize=1;strokeColor=none;fillColor=none;" vertex="1" parent="1">
          <mxGeometry x="460" y="-250" width="50" height="30" as="geometry" />
        </mxCell>
        <mxCell id="7mictqGVA30ZmTcB6VZ4-57" value="(1:M)" style="text;html=1;align=center;verticalAlign=middle;resizable=0;points=[];autosize=1;strokeColor=none;fillColor=none;" vertex="1" parent="1">
          <mxGeometry x="205" y="-62" width="50" height="30" as="geometry" />
        </mxCell>
        <mxCell id="7mictqGVA30ZmTcB6VZ4-58" value="(1:M)" style="text;html=1;align=center;verticalAlign=middle;resizable=0;points=[];autosize=1;strokeColor=none;fillColor=none;" vertex="1" parent="1">
          <mxGeometry x="705" y="-62" width="50" height="30" as="geometry" />
        </mxCell>
        <mxCell id="7mictqGVA30ZmTcB6VZ4-59" value="(1:M)" style="text;html=1;align=center;verticalAlign=middle;resizable=0;points=[];autosize=1;strokeColor=none;fillColor=none;" vertex="1" parent="1">
          <mxGeometry x="465" y="128" width="50" height="30" as="geometry" />
        </mxCell>
        <mxCell id="7mictqGVA30ZmTcB6VZ4-60" value="(M:1)" style="text;html=1;align=center;verticalAlign=middle;resizable=0;points=[];autosize=1;strokeColor=none;fillColor=none;" vertex="1" parent="1">
          <mxGeometry x="775" y="-62" width="50" height="30" as="geometry" />
        </mxCell>
        <mxCell id="7mictqGVA30ZmTcB6VZ4-61" value="(1:N)" style="text;html=1;align=center;verticalAlign=middle;resizable=0;points=[];autosize=1;strokeColor=none;fillColor=none;" vertex="1" parent="1">
          <mxGeometry x="745" y="-352" width="50" height="30" as="geometry" />
        </mxCell>
        <mxCell id="7mictqGVA30ZmTcB6VZ4-62" value="(M:N)" style="text;html=1;align=center;verticalAlign=middle;resizable=0;points=[];autosize=1;strokeColor=none;fillColor=none;" vertex="1" parent="1">
          <mxGeometry x="1035" y="-272" width="50" height="30" as="geometry" />
        </mxCell>
        <mxCell id="7mictqGVA30ZmTcB6VZ4-63" value="Autor" style="shape=table;startSize=30;container=1;collapsible=1;childLayout=tableLayout;fixedRows=1;rowLines=0;fontStyle=1;align=center;resizeLast=1;html=1;" vertex="1" parent="1">
          <mxGeometry x="184" y="220" width="180" height="120" as="geometry" />
        </mxCell>
        <mxCell id="7mictqGVA30ZmTcB6VZ4-64" value="" style="shape=tableRow;horizontal=0;startSize=0;swimlaneHead=0;swimlaneBody=0;fillColor=none;collapsible=0;dropTarget=0;points=[[0,0.5],[1,0.5]];portConstraint=eastwest;top=0;left=0;right=0;bottom=1;" vertex="1" parent="7mictqGVA30ZmTcB6VZ4-63">
          <mxGeometry y="30" width="180" height="30" as="geometry" />
        </mxCell>
        <mxCell id="7mictqGVA30ZmTcB6VZ4-65" value="PK" style="shape=partialRectangle;connectable=0;fillColor=none;top=0;left=0;bottom=0;right=0;fontStyle=1;overflow=hidden;whiteSpace=wrap;html=1;" vertex="1" parent="7mictqGVA30ZmTcB6VZ4-64">
          <mxGeometry width="30" height="30" as="geometry">
            <mxRectangle width="30" height="30" as="alternateBounds" />
          </mxGeometry>
        </mxCell>
        <mxCell id="7mictqGVA30ZmTcB6VZ4-66" value="UniqueID int" style="shape=partialRectangle;connectable=0;fillColor=none;top=0;left=0;bottom=0;right=0;align=left;spacingLeft=6;fontStyle=5;overflow=hidden;whiteSpace=wrap;html=1;" vertex="1" parent="7mictqGVA30ZmTcB6VZ4-64">
          <mxGeometry x="30" width="150" height="30" as="geometry">
            <mxRectangle width="150" height="30" as="alternateBounds" />
          </mxGeometry>
        </mxCell>
        <mxCell id="7mictqGVA30ZmTcB6VZ4-67" value="" style="shape=tableRow;horizontal=0;startSize=0;swimlaneHead=0;swimlaneBody=0;fillColor=none;collapsible=0;dropTarget=0;points=[[0,0.5],[1,0.5]];portConstraint=eastwest;top=0;left=0;right=0;bottom=0;" vertex="1" parent="7mictqGVA30ZmTcB6VZ4-63">
          <mxGeometry y="60" width="180" height="30" as="geometry" />
        </mxCell>
        <mxCell id="7mictqGVA30ZmTcB6VZ4-68" value="" style="shape=partialRectangle;connectable=0;fillColor=none;top=0;left=0;bottom=0;right=0;editable=1;overflow=hidden;whiteSpace=wrap;html=1;" vertex="1" parent="7mictqGVA30ZmTcB6VZ4-67">
          <mxGeometry width="30" height="30" as="geometry">
            <mxRectangle width="30" height="30" as="alternateBounds" />
          </mxGeometry>
        </mxCell>
        <mxCell id="7mictqGVA30ZmTcB6VZ4-69" value="Nombre varchar(100)" style="shape=partialRectangle;connectable=0;fillColor=none;top=0;left=0;bottom=0;right=0;align=left;spacingLeft=6;overflow=hidden;whiteSpace=wrap;html=1;" vertex="1" parent="7mictqGVA30ZmTcB6VZ4-67">
          <mxGeometry x="30" width="150" height="30" as="geometry">
            <mxRectangle width="150" height="30" as="alternateBounds" />
          </mxGeometry>
        </mxCell>
        <mxCell id="7mictqGVA30ZmTcB6VZ4-70" value="" style="shape=tableRow;horizontal=0;startSize=0;swimlaneHead=0;swimlaneBody=0;fillColor=none;collapsible=0;dropTarget=0;points=[[0,0.5],[1,0.5]];portConstraint=eastwest;top=0;left=0;right=0;bottom=0;" vertex="1" parent="7mictqGVA30ZmTcB6VZ4-63">
          <mxGeometry y="90" width="180" height="30" as="geometry" />
        </mxCell>
        <mxCell id="7mictqGVA30ZmTcB6VZ4-71" value="" style="shape=partialRectangle;connectable=0;fillColor=none;top=0;left=0;bottom=0;right=0;editable=1;overflow=hidden;whiteSpace=wrap;html=1;" vertex="1" parent="7mictqGVA30ZmTcB6VZ4-70">
          <mxGeometry width="30" height="30" as="geometry">
            <mxRectangle width="30" height="30" as="alternateBounds" />
          </mxGeometry>
        </mxCell>
        <mxCell id="7mictqGVA30ZmTcB6VZ4-72" value="Nacionalidad Varchar(100)" style="shape=partialRectangle;connectable=0;fillColor=none;top=0;left=0;bottom=0;right=0;align=left;spacingLeft=6;overflow=hidden;whiteSpace=wrap;html=1;" vertex="1" parent="7mictqGVA30ZmTcB6VZ4-70">
          <mxGeometry x="30" width="150" height="30" as="geometry">
            <mxRectangle width="150" height="30" as="alternateBounds" />
          </mxGeometry>
        </mxCell>
        <mxCell id="7mictqGVA30ZmTcB6VZ4-76" value="Libro" style="shape=table;startSize=30;container=1;collapsible=1;childLayout=tableLayout;fixedRows=1;rowLines=0;fontStyle=1;align=center;resizeLast=1;html=1;" vertex="1" parent="1">
          <mxGeometry x="510" y="250" width="180" height="210" as="geometry" />
        </mxCell>
        <mxCell id="7mictqGVA30ZmTcB6VZ4-77" value="" style="shape=tableRow;horizontal=0;startSize=0;swimlaneHead=0;swimlaneBody=0;fillColor=none;collapsible=0;dropTarget=0;points=[[0,0.5],[1,0.5]];portConstraint=eastwest;top=0;left=0;right=0;bottom=1;" vertex="1" parent="7mictqGVA30ZmTcB6VZ4-76">
          <mxGeometry y="30" width="180" height="30" as="geometry" />
        </mxCell>
        <mxCell id="7mictqGVA30ZmTcB6VZ4-78" value="PK" style="shape=partialRectangle;connectable=0;fillColor=none;top=0;left=0;bottom=0;right=0;fontStyle=1;overflow=hidden;whiteSpace=wrap;html=1;" vertex="1" parent="7mictqGVA30ZmTcB6VZ4-77">
          <mxGeometry width="30" height="30" as="geometry">
            <mxRectangle width="30" height="30" as="alternateBounds" />
          </mxGeometry>
        </mxCell>
        <mxCell id="7mictqGVA30ZmTcB6VZ4-79" value="UniqueID int" style="shape=partialRectangle;connectable=0;fillColor=none;top=0;left=0;bottom=0;right=0;align=left;spacingLeft=6;fontStyle=5;overflow=hidden;whiteSpace=wrap;html=1;" vertex="1" parent="7mictqGVA30ZmTcB6VZ4-77">
          <mxGeometry x="30" width="150" height="30" as="geometry">
            <mxRectangle width="150" height="30" as="alternateBounds" />
          </mxGeometry>
        </mxCell>
        <mxCell id="7mictqGVA30ZmTcB6VZ4-80" value="" style="shape=tableRow;horizontal=0;startSize=0;swimlaneHead=0;swimlaneBody=0;fillColor=none;collapsible=0;dropTarget=0;points=[[0,0.5],[1,0.5]];portConstraint=eastwest;top=0;left=0;right=0;bottom=0;" vertex="1" parent="7mictqGVA30ZmTcB6VZ4-76">
          <mxGeometry y="60" width="180" height="30" as="geometry" />
        </mxCell>
        <mxCell id="7mictqGVA30ZmTcB6VZ4-81" value="" style="shape=partialRectangle;connectable=0;fillColor=none;top=0;left=0;bottom=0;right=0;editable=1;overflow=hidden;whiteSpace=wrap;html=1;" vertex="1" parent="7mictqGVA30ZmTcB6VZ4-80">
          <mxGeometry width="30" height="30" as="geometry">
            <mxRectangle width="30" height="30" as="alternateBounds" />
          </mxGeometry>
        </mxCell>
        <mxCell id="7mictqGVA30ZmTcB6VZ4-82" value="Titulo Varchar(100)" style="shape=partialRectangle;connectable=0;fillColor=none;top=0;left=0;bottom=0;right=0;align=left;spacingLeft=6;overflow=hidden;whiteSpace=wrap;html=1;" vertex="1" parent="7mictqGVA30ZmTcB6VZ4-80">
          <mxGeometry x="30" width="150" height="30" as="geometry">
            <mxRectangle width="150" height="30" as="alternateBounds" />
          </mxGeometry>
        </mxCell>
        <mxCell id="7mictqGVA30ZmTcB6VZ4-83" value="" style="shape=tableRow;horizontal=0;startSize=0;swimlaneHead=0;swimlaneBody=0;fillColor=none;collapsible=0;dropTarget=0;points=[[0,0.5],[1,0.5]];portConstraint=eastwest;top=0;left=0;right=0;bottom=0;" vertex="1" parent="7mictqGVA30ZmTcB6VZ4-76">
          <mxGeometry y="90" width="180" height="30" as="geometry" />
        </mxCell>
        <mxCell id="7mictqGVA30ZmTcB6VZ4-84" value="" style="shape=partialRectangle;connectable=0;fillColor=none;top=0;left=0;bottom=0;right=0;editable=1;overflow=hidden;whiteSpace=wrap;html=1;" vertex="1" parent="7mictqGVA30ZmTcB6VZ4-83">
          <mxGeometry width="30" height="30" as="geometry">
            <mxRectangle width="30" height="30" as="alternateBounds" />
          </mxGeometry>
        </mxCell>
        <mxCell id="7mictqGVA30ZmTcB6VZ4-85" value="Anio_Publicacion int" style="shape=partialRectangle;connectable=0;fillColor=none;top=0;left=0;bottom=0;right=0;align=left;spacingLeft=6;overflow=hidden;whiteSpace=wrap;html=1;" vertex="1" parent="7mictqGVA30ZmTcB6VZ4-83">
          <mxGeometry x="30" width="150" height="30" as="geometry">
            <mxRectangle width="150" height="30" as="alternateBounds" />
          </mxGeometry>
        </mxCell>
        <mxCell id="7mictqGVA30ZmTcB6VZ4-86" value="" style="shape=tableRow;horizontal=0;startSize=0;swimlaneHead=0;swimlaneBody=0;fillColor=none;collapsible=0;dropTarget=0;points=[[0,0.5],[1,0.5]];portConstraint=eastwest;top=0;left=0;right=0;bottom=0;" vertex="1" parent="7mictqGVA30ZmTcB6VZ4-76">
          <mxGeometry y="120" width="180" height="30" as="geometry" />
        </mxCell>
        <mxCell id="7mictqGVA30ZmTcB6VZ4-87" value="" style="shape=partialRectangle;connectable=0;fillColor=none;top=0;left=0;bottom=0;right=0;editable=1;overflow=hidden;whiteSpace=wrap;html=1;" vertex="1" parent="7mictqGVA30ZmTcB6VZ4-86">
          <mxGeometry width="30" height="30" as="geometry">
            <mxRectangle width="30" height="30" as="alternateBounds" />
          </mxGeometry>
        </mxCell>
        <mxCell id="7mictqGVA30ZmTcB6VZ4-88" value="Disponible boolean" style="shape=partialRectangle;connectable=0;fillColor=none;top=0;left=0;bottom=0;right=0;align=left;spacingLeft=6;overflow=hidden;whiteSpace=wrap;html=1;" vertex="1" parent="7mictqGVA30ZmTcB6VZ4-86">
          <mxGeometry x="30" width="150" height="30" as="geometry">
            <mxRectangle width="150" height="30" as="alternateBounds" />
          </mxGeometry>
        </mxCell>
        <mxCell id="7mictqGVA30ZmTcB6VZ4-115" value="" style="shape=tableRow;horizontal=0;startSize=0;swimlaneHead=0;swimlaneBody=0;fillColor=none;collapsible=0;dropTarget=0;points=[[0,0.5],[1,0.5]];portConstraint=eastwest;top=0;left=0;right=0;bottom=0;" vertex="1" parent="7mictqGVA30ZmTcB6VZ4-76">
          <mxGeometry y="150" width="180" height="30" as="geometry" />
        </mxCell>
        <mxCell id="7mictqGVA30ZmTcB6VZ4-116" value="" style="shape=partialRectangle;connectable=0;fillColor=none;top=0;left=0;bottom=0;right=0;editable=1;overflow=hidden;whiteSpace=wrap;html=1;" vertex="1" parent="7mictqGVA30ZmTcB6VZ4-115">
          <mxGeometry width="30" height="30" as="geometry">
            <mxRectangle width="30" height="30" as="alternateBounds" />
          </mxGeometry>
        </mxCell>
        <mxCell id="7mictqGVA30ZmTcB6VZ4-117" value="Genero Varchar(100)" style="shape=partialRectangle;connectable=0;fillColor=none;top=0;left=0;bottom=0;right=0;align=left;spacingLeft=6;overflow=hidden;whiteSpace=wrap;html=1;" vertex="1" parent="7mictqGVA30ZmTcB6VZ4-115">
          <mxGeometry x="30" width="150" height="30" as="geometry">
            <mxRectangle width="150" height="30" as="alternateBounds" />
          </mxGeometry>
        </mxCell>
        <mxCell id="7mictqGVA30ZmTcB6VZ4-118" value="" style="shape=tableRow;horizontal=0;startSize=0;swimlaneHead=0;swimlaneBody=0;fillColor=none;collapsible=0;dropTarget=0;points=[[0,0.5],[1,0.5]];portConstraint=eastwest;top=0;left=0;right=0;bottom=0;" vertex="1" parent="7mictqGVA30ZmTcB6VZ4-76">
          <mxGeometry y="180" width="180" height="30" as="geometry" />
        </mxCell>
        <mxCell id="7mictqGVA30ZmTcB6VZ4-119" value="&lt;b&gt;FK&lt;/b&gt;" style="shape=partialRectangle;connectable=0;fillColor=none;top=0;left=0;bottom=0;right=0;editable=1;overflow=hidden;whiteSpace=wrap;html=1;" vertex="1" parent="7mictqGVA30ZmTcB6VZ4-118">
          <mxGeometry width="30" height="30" as="geometry">
            <mxRectangle width="30" height="30" as="alternateBounds" />
          </mxGeometry>
        </mxCell>
        <mxCell id="7mictqGVA30ZmTcB6VZ4-120" value="Autor_id" style="shape=partialRectangle;connectable=0;fillColor=none;top=0;left=0;bottom=0;right=0;align=left;spacingLeft=6;overflow=hidden;whiteSpace=wrap;html=1;" vertex="1" parent="7mictqGVA30ZmTcB6VZ4-118">
          <mxGeometry x="30" width="150" height="30" as="geometry">
            <mxRectangle width="150" height="30" as="alternateBounds" />
          </mxGeometry>
        </mxCell>
        <mxCell id="7mictqGVA30ZmTcB6VZ4-89" value="Prestamo" style="shape=table;startSize=30;container=1;collapsible=1;childLayout=tableLayout;fixedRows=1;rowLines=0;fontStyle=1;align=center;resizeLast=1;html=1;" vertex="1" parent="1">
          <mxGeometry x="150" y="570" width="180" height="180" as="geometry" />
        </mxCell>
        <mxCell id="7mictqGVA30ZmTcB6VZ4-90" value="" style="shape=tableRow;horizontal=0;startSize=0;swimlaneHead=0;swimlaneBody=0;fillColor=none;collapsible=0;dropTarget=0;points=[[0,0.5],[1,0.5]];portConstraint=eastwest;top=0;left=0;right=0;bottom=1;" vertex="1" parent="7mictqGVA30ZmTcB6VZ4-89">
          <mxGeometry y="30" width="180" height="30" as="geometry" />
        </mxCell>
        <mxCell id="7mictqGVA30ZmTcB6VZ4-91" value="PK" style="shape=partialRectangle;connectable=0;fillColor=none;top=0;left=0;bottom=0;right=0;fontStyle=1;overflow=hidden;whiteSpace=wrap;html=1;" vertex="1" parent="7mictqGVA30ZmTcB6VZ4-90">
          <mxGeometry width="30" height="30" as="geometry">
            <mxRectangle width="30" height="30" as="alternateBounds" />
          </mxGeometry>
        </mxCell>
        <mxCell id="7mictqGVA30ZmTcB6VZ4-92" value="UniqueID" style="shape=partialRectangle;connectable=0;fillColor=none;top=0;left=0;bottom=0;right=0;align=left;spacingLeft=6;fontStyle=5;overflow=hidden;whiteSpace=wrap;html=1;" vertex="1" parent="7mictqGVA30ZmTcB6VZ4-90">
          <mxGeometry x="30" width="150" height="30" as="geometry">
            <mxRectangle width="150" height="30" as="alternateBounds" />
          </mxGeometry>
        </mxCell>
        <mxCell id="7mictqGVA30ZmTcB6VZ4-93" value="" style="shape=tableRow;horizontal=0;startSize=0;swimlaneHead=0;swimlaneBody=0;fillColor=none;collapsible=0;dropTarget=0;points=[[0,0.5],[1,0.5]];portConstraint=eastwest;top=0;left=0;right=0;bottom=0;" vertex="1" parent="7mictqGVA30ZmTcB6VZ4-89">
          <mxGeometry y="60" width="180" height="30" as="geometry" />
        </mxCell>
        <mxCell id="7mictqGVA30ZmTcB6VZ4-94" value="&lt;b&gt;FK&lt;/b&gt;" style="shape=partialRectangle;connectable=0;fillColor=none;top=0;left=0;bottom=0;right=0;editable=1;overflow=hidden;whiteSpace=wrap;html=1;" vertex="1" parent="7mictqGVA30ZmTcB6VZ4-93">
          <mxGeometry width="30" height="30" as="geometry">
            <mxRectangle width="30" height="30" as="alternateBounds" />
          </mxGeometry>
        </mxCell>
        <mxCell id="7mictqGVA30ZmTcB6VZ4-95" value="Libro_id" style="shape=partialRectangle;connectable=0;fillColor=none;top=0;left=0;bottom=0;right=0;align=left;spacingLeft=6;overflow=hidden;whiteSpace=wrap;html=1;" vertex="1" parent="7mictqGVA30ZmTcB6VZ4-93">
          <mxGeometry x="30" width="150" height="30" as="geometry">
            <mxRectangle width="150" height="30" as="alternateBounds" />
          </mxGeometry>
        </mxCell>
        <mxCell id="7mictqGVA30ZmTcB6VZ4-96" value="" style="shape=tableRow;horizontal=0;startSize=0;swimlaneHead=0;swimlaneBody=0;fillColor=none;collapsible=0;dropTarget=0;points=[[0,0.5],[1,0.5]];portConstraint=eastwest;top=0;left=0;right=0;bottom=0;" vertex="1" parent="7mictqGVA30ZmTcB6VZ4-89">
          <mxGeometry y="90" width="180" height="30" as="geometry" />
        </mxCell>
        <mxCell id="7mictqGVA30ZmTcB6VZ4-97" value="FK" style="shape=partialRectangle;connectable=0;fillColor=none;top=0;left=0;bottom=0;right=0;editable=1;overflow=hidden;whiteSpace=wrap;html=1;fontStyle=1" vertex="1" parent="7mictqGVA30ZmTcB6VZ4-96">
          <mxGeometry width="30" height="30" as="geometry">
            <mxRectangle width="30" height="30" as="alternateBounds" />
          </mxGeometry>
        </mxCell>
        <mxCell id="7mictqGVA30ZmTcB6VZ4-98" value="Miembro_id" style="shape=partialRectangle;connectable=0;fillColor=none;top=0;left=0;bottom=0;right=0;align=left;spacingLeft=6;overflow=hidden;whiteSpace=wrap;html=1;" vertex="1" parent="7mictqGVA30ZmTcB6VZ4-96">
          <mxGeometry x="30" width="150" height="30" as="geometry">
            <mxRectangle width="150" height="30" as="alternateBounds" />
          </mxGeometry>
        </mxCell>
        <mxCell id="7mictqGVA30ZmTcB6VZ4-99" value="" style="shape=tableRow;horizontal=0;startSize=0;swimlaneHead=0;swimlaneBody=0;fillColor=none;collapsible=0;dropTarget=0;points=[[0,0.5],[1,0.5]];portConstraint=eastwest;top=0;left=0;right=0;bottom=0;" vertex="1" parent="7mictqGVA30ZmTcB6VZ4-89">
          <mxGeometry y="120" width="180" height="30" as="geometry" />
        </mxCell>
        <mxCell id="7mictqGVA30ZmTcB6VZ4-100" value="" style="shape=partialRectangle;connectable=0;fillColor=none;top=0;left=0;bottom=0;right=0;editable=1;overflow=hidden;whiteSpace=wrap;html=1;" vertex="1" parent="7mictqGVA30ZmTcB6VZ4-99">
          <mxGeometry width="30" height="30" as="geometry">
            <mxRectangle width="30" height="30" as="alternateBounds" />
          </mxGeometry>
        </mxCell>
        <mxCell id="7mictqGVA30ZmTcB6VZ4-101" value="Fecha_Prestamo" style="shape=partialRectangle;connectable=0;fillColor=none;top=0;left=0;bottom=0;right=0;align=left;spacingLeft=6;overflow=hidden;whiteSpace=wrap;html=1;" vertex="1" parent="7mictqGVA30ZmTcB6VZ4-99">
          <mxGeometry x="30" width="150" height="30" as="geometry">
            <mxRectangle width="150" height="30" as="alternateBounds" />
          </mxGeometry>
        </mxCell>
        <mxCell id="7mictqGVA30ZmTcB6VZ4-121" value="" style="shape=tableRow;horizontal=0;startSize=0;swimlaneHead=0;swimlaneBody=0;fillColor=none;collapsible=0;dropTarget=0;points=[[0,0.5],[1,0.5]];portConstraint=eastwest;top=0;left=0;right=0;bottom=0;" vertex="1" parent="7mictqGVA30ZmTcB6VZ4-89">
          <mxGeometry y="150" width="180" height="30" as="geometry" />
        </mxCell>
        <mxCell id="7mictqGVA30ZmTcB6VZ4-122" value="" style="shape=partialRectangle;connectable=0;fillColor=none;top=0;left=0;bottom=0;right=0;editable=1;overflow=hidden;whiteSpace=wrap;html=1;" vertex="1" parent="7mictqGVA30ZmTcB6VZ4-121">
          <mxGeometry width="30" height="30" as="geometry">
            <mxRectangle width="30" height="30" as="alternateBounds" />
          </mxGeometry>
        </mxCell>
        <mxCell id="7mictqGVA30ZmTcB6VZ4-123" value="Fecha_Devolucion" style="shape=partialRectangle;connectable=0;fillColor=none;top=0;left=0;bottom=0;right=0;align=left;spacingLeft=6;overflow=hidden;whiteSpace=wrap;html=1;" vertex="1" parent="7mictqGVA30ZmTcB6VZ4-121">
          <mxGeometry x="30" width="150" height="30" as="geometry">
            <mxRectangle width="150" height="30" as="alternateBounds" />
          </mxGeometry>
        </mxCell>
        <mxCell id="7mictqGVA30ZmTcB6VZ4-102" value="Miembro" style="shape=table;startSize=30;container=1;collapsible=1;childLayout=tableLayout;fixedRows=1;rowLines=0;fontStyle=1;align=center;resizeLast=1;html=1;" vertex="1" parent="1">
          <mxGeometry x="775" y="460" width="180" height="150" as="geometry" />
        </mxCell>
        <mxCell id="7mictqGVA30ZmTcB6VZ4-103" value="" style="shape=tableRow;horizontal=0;startSize=0;swimlaneHead=0;swimlaneBody=0;fillColor=none;collapsible=0;dropTarget=0;points=[[0,0.5],[1,0.5]];portConstraint=eastwest;top=0;left=0;right=0;bottom=1;" vertex="1" parent="7mictqGVA30ZmTcB6VZ4-102">
          <mxGeometry y="30" width="180" height="30" as="geometry" />
        </mxCell>
        <mxCell id="7mictqGVA30ZmTcB6VZ4-104" value="PK" style="shape=partialRectangle;connectable=0;fillColor=none;top=0;left=0;bottom=0;right=0;fontStyle=1;overflow=hidden;whiteSpace=wrap;html=1;" vertex="1" parent="7mictqGVA30ZmTcB6VZ4-103">
          <mxGeometry width="30" height="30" as="geometry">
            <mxRectangle width="30" height="30" as="alternateBounds" />
          </mxGeometry>
        </mxCell>
        <mxCell id="7mictqGVA30ZmTcB6VZ4-105" value="UniqueID int" style="shape=partialRectangle;connectable=0;fillColor=none;top=0;left=0;bottom=0;right=0;align=left;spacingLeft=6;fontStyle=5;overflow=hidden;whiteSpace=wrap;html=1;" vertex="1" parent="7mictqGVA30ZmTcB6VZ4-103">
          <mxGeometry x="30" width="150" height="30" as="geometry">
            <mxRectangle width="150" height="30" as="alternateBounds" />
          </mxGeometry>
        </mxCell>
        <mxCell id="7mictqGVA30ZmTcB6VZ4-106" value="" style="shape=tableRow;horizontal=0;startSize=0;swimlaneHead=0;swimlaneBody=0;fillColor=none;collapsible=0;dropTarget=0;points=[[0,0.5],[1,0.5]];portConstraint=eastwest;top=0;left=0;right=0;bottom=0;" vertex="1" parent="7mictqGVA30ZmTcB6VZ4-102">
          <mxGeometry y="60" width="180" height="30" as="geometry" />
        </mxCell>
        <mxCell id="7mictqGVA30ZmTcB6VZ4-107" value="" style="shape=partialRectangle;connectable=0;fillColor=none;top=0;left=0;bottom=0;right=0;editable=1;overflow=hidden;whiteSpace=wrap;html=1;" vertex="1" parent="7mictqGVA30ZmTcB6VZ4-106">
          <mxGeometry width="30" height="30" as="geometry">
            <mxRectangle width="30" height="30" as="alternateBounds" />
          </mxGeometry>
        </mxCell>
        <mxCell id="7mictqGVA30ZmTcB6VZ4-108" value="Nombre Varchar(100)" style="shape=partialRectangle;connectable=0;fillColor=none;top=0;left=0;bottom=0;right=0;align=left;spacingLeft=6;overflow=hidden;whiteSpace=wrap;html=1;" vertex="1" parent="7mictqGVA30ZmTcB6VZ4-106">
          <mxGeometry x="30" width="150" height="30" as="geometry">
            <mxRectangle width="150" height="30" as="alternateBounds" />
          </mxGeometry>
        </mxCell>
        <mxCell id="7mictqGVA30ZmTcB6VZ4-109" value="" style="shape=tableRow;horizontal=0;startSize=0;swimlaneHead=0;swimlaneBody=0;fillColor=none;collapsible=0;dropTarget=0;points=[[0,0.5],[1,0.5]];portConstraint=eastwest;top=0;left=0;right=0;bottom=0;" vertex="1" parent="7mictqGVA30ZmTcB6VZ4-102">
          <mxGeometry y="90" width="180" height="30" as="geometry" />
        </mxCell>
        <mxCell id="7mictqGVA30ZmTcB6VZ4-110" value="" style="shape=partialRectangle;connectable=0;fillColor=none;top=0;left=0;bottom=0;right=0;editable=1;overflow=hidden;whiteSpace=wrap;html=1;" vertex="1" parent="7mictqGVA30ZmTcB6VZ4-109">
          <mxGeometry width="30" height="30" as="geometry">
            <mxRectangle width="30" height="30" as="alternateBounds" />
          </mxGeometry>
        </mxCell>
        <mxCell id="7mictqGVA30ZmTcB6VZ4-111" value="Email Varchar(100)" style="shape=partialRectangle;connectable=0;fillColor=none;top=0;left=0;bottom=0;right=0;align=left;spacingLeft=6;overflow=hidden;whiteSpace=wrap;html=1;" vertex="1" parent="7mictqGVA30ZmTcB6VZ4-109">
          <mxGeometry x="30" width="150" height="30" as="geometry">
            <mxRectangle width="150" height="30" as="alternateBounds" />
          </mxGeometry>
        </mxCell>
        <mxCell id="7mictqGVA30ZmTcB6VZ4-112" value="" style="shape=tableRow;horizontal=0;startSize=0;swimlaneHead=0;swimlaneBody=0;fillColor=none;collapsible=0;dropTarget=0;points=[[0,0.5],[1,0.5]];portConstraint=eastwest;top=0;left=0;right=0;bottom=0;" vertex="1" parent="7mictqGVA30ZmTcB6VZ4-102">
          <mxGeometry y="120" width="180" height="30" as="geometry" />
        </mxCell>
        <mxCell id="7mictqGVA30ZmTcB6VZ4-113" value="" style="shape=partialRectangle;connectable=0;fillColor=none;top=0;left=0;bottom=0;right=0;editable=1;overflow=hidden;whiteSpace=wrap;html=1;" vertex="1" parent="7mictqGVA30ZmTcB6VZ4-112">
          <mxGeometry width="30" height="30" as="geometry">
            <mxRectangle width="30" height="30" as="alternateBounds" />
          </mxGeometry>
        </mxCell>
        <mxCell id="7mictqGVA30ZmTcB6VZ4-114" value="Telefono Varchar(10)" style="shape=partialRectangle;connectable=0;fillColor=none;top=0;left=0;bottom=0;right=0;align=left;spacingLeft=6;overflow=hidden;whiteSpace=wrap;html=1;" vertex="1" parent="7mictqGVA30ZmTcB6VZ4-112">
          <mxGeometry x="30" width="150" height="30" as="geometry">
            <mxRectangle width="150" height="30" as="alternateBounds" />
          </mxGeometry>
        </mxCell>
        <mxCell id="7mictqGVA30ZmTcB6VZ4-124" value="" style="edgeStyle=entityRelationEdgeStyle;fontSize=12;html=1;endArrow=ERoneToMany;rounded=0;entryX=0;entryY=0.5;entryDx=0;entryDy=0;exitX=1;exitY=0.5;exitDx=0;exitDy=0;" edge="1" parent="1" source="7mictqGVA30ZmTcB6VZ4-64" target="7mictqGVA30ZmTcB6VZ4-118">
          <mxGeometry width="100" height="100" relative="1" as="geometry">
            <mxPoint x="410" y="490" as="sourcePoint" />
            <mxPoint x="510" y="390" as="targetPoint" />
          </mxGeometry>
        </mxCell>
        <mxCell id="7mictqGVA30ZmTcB6VZ4-125" value="" style="edgeStyle=entityRelationEdgeStyle;fontSize=12;html=1;endArrow=ERoneToMany;rounded=0;exitX=0;exitY=0.5;exitDx=0;exitDy=0;entryX=1.011;entryY=0.133;entryDx=0;entryDy=0;entryPerimeter=0;" edge="1" parent="1" source="7mictqGVA30ZmTcB6VZ4-103" target="7mictqGVA30ZmTcB6VZ4-96">
          <mxGeometry width="100" height="100" relative="1" as="geometry">
            <mxPoint x="550" y="580" as="sourcePoint" />
            <mxPoint x="650" y="480" as="targetPoint" />
          </mxGeometry>
        </mxCell>
        <mxCell id="7mictqGVA30ZmTcB6VZ4-126" value="" style="edgeStyle=entityRelationEdgeStyle;fontSize=12;html=1;endArrow=ERoneToMany;rounded=0;exitX=0;exitY=0.5;exitDx=0;exitDy=0;entryX=1;entryY=0.5;entryDx=0;entryDy=0;" edge="1" parent="1" source="7mictqGVA30ZmTcB6VZ4-77" target="7mictqGVA30ZmTcB6VZ4-93">
          <mxGeometry width="100" height="100" relative="1" as="geometry">
            <mxPoint x="480" y="585" as="sourcePoint" />
            <mxPoint x="580" y="485" as="targetPoint" />
          </mxGeometry>
        </mxCell>
      </root>
    </mxGraphModel>
  </diagram>
</mxfile>
